<svg xmlns="http://www.w3.org/2000/svg" width="940" height="750">
<rect width="100%" height="100%" fill="white"/><g font-family="sans-serif" font-size="13">
<text x="25" y="28" font-size="20">Cumulative provider usage, concurrency 8</text>
<text x="25" y="49">First repetition of each mode. Blue: completed usage; red: APIM rejection; dashed: quota.</text>
<text x="25" y="73">quota-normal-off-c8</text>
<line x1="100" y1="230" x2="880" y2="230" stroke="#555"/>
<line x1="100" y1="163.300395256917" x2="880" y2="163.300395256917" stroke="#777" stroke-dasharray="5 4"/>
<text x="25" y="167.300395256917">800</text>
<circle cx="762.69913028239" cy="107.27272727272728" r="5" fill="#be3434"/>
<circle cx="763.0058422524195" cy="107.27272727272728" r="5" fill="#be3434"/>
<circle cx="763.2771237884212" cy="107.27272727272728" r="5" fill="#be3434"/>
<circle cx="763.3770325867857" cy="107.27272727272728" r="5" fill="#be3434"/>
<circle cx="763.588811095995" cy="107.27272727272728" r="5" fill="#be3434"/>
<circle cx="763.6365039781116" cy="107.27272727272728" r="5" fill="#be3434"/>
<circle cx="764.3570735711448" cy="107.27272727272728" r="5" fill="#be3434"/>
<circle cx="764.5096505891703" cy="107.27272727272728" r="5" fill="#be3434"/>
<circle cx="804.2251568967733" cy="107.27272727272728" r="5" fill="#be3434"/>
<polyline points="100,230 509.08155024095464,230 509.08155024095464,214.6590909090909 530.8361885254748,214.6590909090909 530.8361885254748,199.3181818181818 565.1208877517589,199.3181818181818 565.1208877517589,183.97727272727275 565.5092656158237,183.97727272727275 565.5092656158237,168.63636363636363 665.6797968887066,168.63636363636363 665.6797968887066,153.29545454545456 688.0934915020758,153.29545454545456 688.0934915020758,137.95454545454547 699.4819888850624,137.95454545454547 699.4819888850624,122.61363636363637 721.1391809120228,122.61363636363637 721.1391809120228,107.27272727272728 762.69913028239,107.27272727272728 762.69913028239,107.27272727272728 763.0058422524195,107.27272727272728 763.0058422524195,107.27272727272728 763.2771237884212,107.27272727272728 763.2771237884212,107.27272727272728 763.3770325867857,107.27272727272728 763.3770325867857,107.27272727272728 763.588811095995,107.27272727272728 763.588811095995,107.27272727272728 763.6365039781116,107.27272727272728 763.6365039781116,107.27272727272728 764.3570735711448,107.27272727272728 764.3570735711448,107.27272727272728 764.5096505891703,107.27272727272728 764.5096505891703,107.27272727272728 804.2251568967733,107.27272727272728 804.2251568967733,107.27272727272728" fill="none" stroke="#2463b4" stroke-width="2"/>
<text x="95" y="250">0</text><text x="745" y="250">3.79 seconds</text>
<text x="25" y="293">quota-normal-on-c8</text>
<line x1="100" y1="450" x2="880" y2="450" stroke="#555"/>
<line x1="100" y1="383.300395256917" x2="880" y2="383.300395256917" stroke="#777" stroke-dasharray="5 4"/>
<text x="25" y="387.300395256917">800</text>
<circle cx="834.9476652091372" cy="327.27272727272725" r="5" fill="#be3434"/>
<circle cx="835.0112389666479" cy="327.27272727272725" r="5" fill="#be3434"/>
<circle cx="835.1801994194151" cy="327.27272727272725" r="5" fill="#be3434"/>
<circle cx="837.6102748902987" cy="327.27272727272725" r="5" fill="#be3434"/>
<circle cx="837.7310399016014" cy="327.27272727272725" r="5" fill="#be3434"/>
<circle cx="837.8258728505521" cy="327.27272727272725" r="5" fill="#be3434"/>
<circle cx="840.8450483890557" cy="327.27272727272725" r="5" fill="#be3434"/>
<circle cx="840.9927003254717" cy="327.27272727272725" r="5" fill="#be3434"/>
<circle cx="880" cy="327.27272727272725" r="5" fill="#be3434"/>
<polyline points="100,450 613.7591342577633,450 613.7591342577633,434.65909090909093 618.4114769091699,434.65909090909093 618.4114769091699,419.3181818181818 716.3235567284804,419.3181818181818 716.3235567284804,403.97727272727275 717.031512081881,403.97727272727275 717.031512081881,388.6363636363636 751.7136854964272,388.6363636363636 751.7136854964272,373.29545454545456 768.3860416074039,373.29545454545456 768.3860416074039,357.9545454545455 774.3458426583328,357.9545454545455 774.3458426583328,342.6136363636364 794.0998424347583,342.6136363636364 794.0998424347583,327.27272727272725 834.9476652091372,327.27272727272725 834.9476652091372,327.27272727272725 835.0112389666479,327.27272727272725 835.0112389666479,327.27272727272725 835.1801994194151,327.27272727272725 835.1801994194151,327.27272727272725 837.6102748902987,327.27272727272725 837.6102748902987,327.27272727272725 837.7310399016014,327.27272727272725 837.7310399016014,327.27272727272725 837.8258728505521,327.27272727272725 837.8258728505521,327.27272727272725 840.8450483890557,327.27272727272725 840.8450483890557,327.27272727272725 840.9927003254717,327.27272727272725 840.9927003254717,327.27272727272725 880,327.27272727272725 880,327.27272727272725" fill="none" stroke="#2463b4" stroke-width="2"/>
<text x="95" y="470">0</text><text x="745" y="470">3.79 seconds</text>
<text x="25" y="513">quota-stream-c8</text>
<line x1="100" y1="670" x2="880" y2="670" stroke="#555"/>
<line x1="100" y1="603.300395256917" x2="880" y2="603.300395256917" stroke="#777" stroke-dasharray="5 4"/>
<text x="25" y="607.300395256917">800</text>
<circle cx="773.1263824006294" cy="547.2727272727273" r="5" fill="#be3434"/>
<circle cx="773.5035531912358" cy="547.2727272727273" r="5" fill="#be3434"/>
<circle cx="773.9135913631955" cy="547.2727272727273" r="5" fill="#be3434"/>
<circle cx="775.6272684836335" cy="547.2727272727273" r="5" fill="#be3434"/>
<circle cx="775.9930311770423" cy="547.2727272727273" r="5" fill="#be3434"/>
<circle cx="776.3912592043262" cy="547.2727272727273" r="5" fill="#be3434"/>
<circle cx="777.8560186797444" cy="547.2727272727273" r="5" fill="#be3434"/>
<circle cx="778.2866617849684" cy="547.2727272727273" r="5" fill="#be3434"/>
<circle cx="817.9492485932365" cy="547.2727272727273" r="5" fill="#be3434"/>
<polyline points="100,670 570.5169679821372,670 570.5169679821372,654.6590909090909 576.1042720443953,654.6590909090909 576.1042720443953,639.3181818181819 582.038894871994,639.3181818181819 582.038894871994,623.9772727272727 583.9407302122895,623.9772727272727 583.9407302122895,608.6363636363636 705.1996065862336,608.6363636363636 705.1996065862336,593.2954545454545 715.1704845606358,593.2954545454545 715.1704845606358,577.9545454545455 720.8685527031733,577.9545454545455 720.8685527031733,562.6136363636364 731.2205716870304,562.6136363636364 731.2205716870304,547.2727272727273 773.1263824006294,547.2727272727273 773.1263824006294,547.2727272727273 773.5035531912358,547.2727272727273 773.5035531912358,547.2727272727273 773.9135913631955,547.2727272727273 773.9135913631955,547.2727272727273 775.6272684836335,547.2727272727273 775.6272684836335,547.2727272727273 775.9930311770423,547.2727272727273 775.9930311770423,547.2727272727273 776.3912592043262,547.2727272727273 776.3912592043262,547.2727272727273 777.8560186797444,547.2727272727273 777.8560186797444,547.2727272727273 778.2866617849684,547.2727272727273 778.2866617849684,547.2727272727273 817.9492485932365,547.2727272727273 817.9492485932365,547.2727272727273" fill="none" stroke="#2463b4" stroke-width="2"/>
<text x="95" y="690">0</text><text x="745" y="690">3.79 seconds</text>
</g></svg>
